<svg width="18" height="18" viewBox="0 0 18 18" fill="none" xmlns="http://www.w3.org/2000/svg">
<path d="M11.857 1.92587C10.7901 -0.641954 7.20991 -0.641957 6.14297 1.92587L5.58369 3.27189C5.361 3.80784 4.87574 4.17228 4.3211 4.23508L2.76039 4.41179C0.12208 4.71052 -0.9307 7.99488 0.966294 9.82888L2.29142 11.11C2.68291 11.4885 2.85894 12.0499 2.75098 12.596L2.43104 14.2142C1.89984 16.901 4.795 18.9982 7.12787 17.5005L8.17453 16.8286C8.67966 16.5043 9.32034 16.5043 9.82547 16.8286L10.8721 17.5005C13.205 18.9982 16.1002 16.901 15.569 14.2142L15.249 12.596C15.1411 12.0499 15.3171 11.4885 15.7086 11.11L17.0337 9.82888C18.9307 7.99488 17.8779 4.71052 15.2396 4.41179L13.6789 4.23508C13.1243 4.17228 12.639 3.80784 12.4163 3.27189L11.857 1.92587Z" fill="#FBBC05"/>
</svg>
