<svg width="75" height="24" viewBox="0 0 75 24" fill="none" xmlns="http://www.w3.org/2000/svg">
<path d="M14.056 15.4H6.256L4.768 19H0.784L8.272 2.2H12.112L19.624 19H15.544L14.056 15.4ZM12.832 12.448L10.168 6.016L7.504 12.448H12.832Z" fill="#FFD49F"/>
<path d="M20.343 23.848C19.031 23.848 18.031 23.608 17.343 23.128L18.351 20.416C18.783 20.72 19.311 20.872 19.935 20.872C20.415 20.872 20.791 20.712 21.063 20.392C21.335 20.088 21.471 19.624 21.471 19V6.088H25.215V18.976C25.215 20.48 24.783 21.664 23.919 22.528C23.071 23.408 21.879 23.848 20.343 23.848ZM23.343 4.288C22.655 4.288 22.095 4.088 21.663 3.688C21.231 3.288 21.015 2.792 21.015 2.2C21.015 1.608 21.231 1.112 21.663 0.711999C22.095 0.311999 22.655 0.111999 23.343 0.111999C24.031 0.111999 24.591 0.303999 25.023 0.688C25.455 1.072 25.671 1.552 25.671 2.128C25.671 2.752 25.455 3.272 25.023 3.688C24.591 4.088 24.031 4.288 23.343 4.288ZM34.0704 5.896C36.0704 5.896 37.6064 6.376 38.6784 7.336C39.7504 8.28 40.2864 9.712 40.2864 11.632V19H36.7824V17.392C36.0784 18.592 34.7664 19.192 32.8464 19.192C31.8544 19.192 30.9904 19.024 30.2544 18.688C29.5344 18.352 28.9824 17.888 28.5984 17.296C28.2144 16.704 28.0224 16.032 28.0224 15.28C28.0224 14.08 28.4704 13.136 29.3664 12.448C30.2784 11.76 31.6784 11.416 33.5664 11.416H36.5424C36.5424 10.6 36.2944 9.976 35.7984 9.544C35.3024 9.096 34.5584 8.872 33.5664 8.872C32.8784 8.872 32.1984 8.984 31.5264 9.208C30.8704 9.416 30.3104 9.704 29.8464 10.072L28.5024 7.456C29.2064 6.96 30.0464 6.576 31.0224 6.304C32.0144 6.032 33.0304 5.896 34.0704 5.896ZM33.7824 16.672C34.4224 16.672 34.9904 16.528 35.4864 16.24C35.9824 15.936 36.3344 15.496 36.5424 14.92V13.6H33.9744C32.4384 13.6 31.6704 14.104 31.6704 15.112C31.6704 15.592 31.8544 15.976 32.2224 16.264C32.6064 16.536 33.1264 16.672 33.7824 16.672ZM47.4509 7.792C47.8989 7.168 48.4989 6.696 49.2509 6.376C50.0189 6.056 50.8989 5.896 51.8909 5.896V9.352C51.4749 9.32 51.1949 9.304 51.0509 9.304C49.9789 9.304 49.1389 9.608 48.5309 10.216C47.9229 10.808 47.6189 11.704 47.6189 12.904V19H43.8749V6.088H47.4509V7.792ZM54.3171 6.088H58.0611V19H54.3171V6.088ZM56.1891 4.288C55.5011 4.288 54.9411 4.088 54.5091 3.688C54.0771 3.288 53.8611 2.792 53.8611 2.2C53.8611 1.608 54.0771 1.112 54.5091 0.711999C54.9411 0.311999 55.5011 0.111999 56.1891 0.111999C56.8771 0.111999 57.4371 0.303999 57.8691 0.688C58.3011 1.072 58.5171 1.552 58.5171 2.128C58.5171 2.752 58.3011 3.272 57.8691 3.688C57.4371 4.088 56.8771 4.288 56.1891 4.288ZM69.5838 5.896C71.1838 5.896 72.4718 6.376 73.4478 7.336C74.4398 8.296 74.9358 9.72 74.9358 11.608V19H71.1918V12.184C71.1918 11.16 70.9678 10.4 70.5198 9.904C70.0718 9.392 69.4238 9.136 68.5758 9.136C67.6318 9.136 66.8798 9.432 66.3198 10.024C65.7598 10.6 65.4798 11.464 65.4798 12.616V19H61.7358V6.088H65.3118V7.6C65.8078 7.056 66.4238 6.64 67.1598 6.352C67.8958 6.048 68.7038 5.896 69.5838 5.896Z" fill="#363853"/>
</svg>
