<svg width="17" height="17" viewBox="0 0 17 17" fill="none" xmlns="http://www.w3.org/2000/svg">
<path fill-rule="evenodd" clip-rule="evenodd" d="M12.7657 11.9242C13.3016 11.8432 13.9921 11.8275 14.9398 11.8246C14.2657 13.4893 12.8395 14.7463 11.0834 15.1658L11.0794 15.1668C11.0881 14.4724 11.1126 13.9369 11.1793 13.5043C11.2666 12.9384 11.416 12.6258 11.6389 12.3987C11.8671 12.1663 12.1836 12.0122 12.7657 11.9242ZM11.3767 0.668438C9.62929 0.250983 7.81071 0.250983 6.06327 0.668438C3.53975 1.2713 1.56936 3.27804 0.977419 5.84813C0.567525 7.62781 0.567525 9.47995 0.977419 11.2596C1.56936 13.8297 3.53975 15.8365 6.06327 16.4393C7.531 16.7899 9.04892 16.8461 10.5327 16.6077C10.8155 16.5623 11.097 16.5061 11.3767 16.4393C13.9003 15.8365 15.8706 13.8297 16.4626 11.2596C16.8725 9.47994 16.8725 7.62781 16.4626 5.84813C15.8706 3.27805 13.9003 1.2713 11.3767 0.668438ZM5.63751 5.93774C5.63751 5.64877 5.86752 5.41452 6.15126 5.41452H8.71997C9.00371 5.41452 9.23372 5.64877 9.23372 5.93774C9.23372 6.22671 9.00371 6.46096 8.71997 6.46096H6.15126C5.86752 6.46096 5.63751 6.22671 5.63751 5.93774ZM5.63751 8.55385C5.63751 8.26488 5.86752 8.03063 6.15126 8.03063H10.4325C10.7162 8.03063 10.9462 8.26488 10.9462 8.55385C10.9462 8.84282 10.7162 9.07708 10.4325 9.07708H6.15126C5.86752 9.07708 5.63751 8.84282 5.63751 8.55385Z" fill="#3C64B1"/>
</svg>
