<?xml version="1.0" standalone="no"?>
<!DOCTYPE svg PUBLIC "-//W3C//DTD SVG 20010904//EN"
 "http://www.w3.org/TR/2001/REC-SVG-20010904/DTD/svg10.dtd">
<svg version="1.0" xmlns="http://www.w3.org/2000/svg"
 width="120.000000pt" height="120.000000pt" viewBox="0 0 120.000000 120.000000"
 preserveAspectRatio="xMidYMid meet">
<metadata>
Created by potrace 1.11, written by Peter Selinger 2001-2013
</metadata>
<g transform="translate(0.000000,120.000000) scale(0.100000,-0.100000)"
fill="#000000" stroke="none">
<path d="M279 1181 c-117 -37 -219 -139 -258 -257 -19 -58 -21 -86 -20 -331 0
-266 1 -269 27 -337 36 -92 113 -173 209 -219 l68 -32 276 -3 c252 -2 282 0
340 18 118 37 219 137 258 258 20 59 22 85 21 323 -1 288 -7 324 -65 415 -42
65 -107 120 -182 153 -57 26 -61 26 -338 28 -245 2 -287 0 -336 -16z m611
-117 c74 -22 149 -98 174 -176 15 -49 17 -89 14 -310 -3 -247 -4 -254 -28
-302 -27 -52 -80 -104 -139 -133 -31 -16 -69 -18 -289 -21 -308 -4 -337 2
-416 81 -82 82 -88 112 -84 419 3 243 4 255 26 298 40 76 100 127 173 149 19
5 142 10 275 10 192 1 251 -2 294 -15z"/>
<path d="M589 912 l-47 -3 -27 -62 c-16 -34 -40 -89 -55 -122 -91 -201 -210
-472 -210 -478 0 -4 35 -7 78 -7 l77 0 24 62 c13 35 27 68 32 73 4 6 69 10
160 9 l153 0 30 -72 30 -72 78 0 c43 0 78 4 78 8 0 7 -55 135 -122 282 -14 30
-58 128 -98 218 -40 89 -78 162 -84 163 -6 0 -20 1 -31 2 -11 1 -41 1 -66 -1z
m85 -286 c25 -60 43 -112 41 -117 -6 -8 -195 -8 -195 0 -1 20 95 240 102 233
4 -4 28 -56 52 -116z"/>
</g>
</svg>
